# xmcd
#
# Track frame offsets: 
#        150
#        11450
#        15979
#        28564
#        28893
#        35193
#        43492
#        49722
#        59745
#        70348
#        80143
#        83740
#        95267
#        102406
#        114537
#        127608
#        134402
#        142567
#        148985
#        162636
#
# Disc length: 2282 seconds
#
# Revision: 0
# Processed by: cddbd v1.5.2PL0 Copyright (c) Steve Scherf et al.
# Submitted via: ExactAudioCopy v0.99pb5
#
DISCID=1a08e814
DTITLE=The Red Krayola  - God Bless The Red Krayola And All Who Sail W
DTITLE=ith It  FLAC
DYEAR=1900
DGENRE=
TTITLE0=Say Hello To Jamie Jones
TTITLE1=Music
TTITLE2=The Shirt
TTITLE3=Listen To This
TTITLE4=Save The House
TTITLE5=Victory Garden
TTITLE6=Coconut Hotel
TTITLE7=Sheriff Jack
TTITLE8=Free Piece
TTITLE9=Ravi Shankar:Parachutist
TTITLE10=Piece For Piano and Electric Bass Guitar
TTITLE11=Dairymaid's Lament
TTITLE12=Big(Vocal?Holly Pritchett)
TTITLE13=LeeJol
TTITLE14=Sherlock Holmes
TTITLE15=Dirth Of Tilth
TTITLE16=Tina's Gone To Have A Baby
TTITLE17=The Jewels Of Madonna
TTITLE18=Green Of My Pants
TTITLE19=Night Song
EXTD=
EXTT0=
EXTT1=
EXTT2=
EXTT3=
EXTT4=
EXTT5=
EXTT6=
EXTT7=
EXTT8=
EXTT9=
EXTT10=
EXTT11=
EXTT12=
EXTT13=
EXTT14=
EXTT15=
EXTT16=
EXTT17=
EXTT18=
EXTT19=
PLAYORDER=
